PathFileType	4	(X/Y/Z)	C:/Users/opensim2020/Desktop/walking_exp_matlab/subject06_walking22_straight_04.trc																																																																																																																																		
DataRate	CameraRate	NumFrames	NumMarkers	Units	OrigDataRate	OrigDataStartFrame	OrigNumFrames																																																																																																																														
100	100	5	44	mm	100	2213	102																																																																																																																														
Frame#	Time	LFHD			RFHD			LBHD			RBHD			C7			T10			CLAV			STRN			RBAK			LSHO			LUPA			LELB			LFRM			LWRA			LWRB			LFIN			RSHO			RUPA			RELB			RFRM			RWRA			RWRB			RFIN			LASI			RASI			LPSI			RPSI			LTHI			LKNE			LTIB			LANK			LHEE			LTOE			RTHI			RKNE			RTIB			RANK			RHEE			RTOE			*39			*40			*41			*42			*43		
		X1	Y1	Z1	X2	Y2	Z2	X3	Y3	Z3	X4	Y4	Z4	X5	Y5	Z5	X6	Y6	Z6	X7	Y7	Z7	X8	Y8	Z8	X9	Y9	Z9	X10	Y10	Z10	X11	Y11	Z11	X12	Y12	Z12	X13	Y13	Z13	X14	Y14	Z14	X15	Y15	Z15	X16	Y16	Z16	X17	Y17	Z17	X18	Y18	Z18	X19	Y19	Z19	X20	Y20	Z20	X21	Y21	Z21	X22	Y22	Z22	X23	Y23	Z23	X24	Y24	Z24	X25	Y25	Z25	X26	Y26	Z26	X27	Y27	Z27	X28	Y28	Z28	X29	Y29	Z29	X30	Y30	Z30	X31	Y31	Z31	X32	Y32	Z32	X33	Y33	Z33	X34	Y34	Z34	X35	Y35	Z35	X36	Y36	Z36	X37	Y37	Z37	X38	Y38	Z38	X39	Y39	Z39	X40	Y40	Z40	X41	Y41	Z41	X42	Y42	Z42	X43	Y43	Z43	X44	Y44	Z44
																																																																																																																																					
26	0.25	-357.20029	1636.09534	873.8244	-346.72644	1637.85217	1006.04529	-492.78766	1591.37976	890.08392	-480.40302	1597.60828	1018.51062	-495.14114	1436.4165	947.92621	-540.18433	1107.60205	963.81787	-387.06595	1355.53894	957.87878	-352.92242	1179.76624	963.10071	-579.09827	1271.57666	1028.92261	-428.30426	1381.526	791.46368	-464.17517	1181.33948	722.64587	-498.76181	1073.6604	713.71265	-512.5199	923.987	694.15991	-487.75464	798.22369	738.58936	-545.12134	809.32532	697.9903	-530.48279	718.87701	702.24518	-442.1683	1394.36292	1114.39075	-493.9838	1207.72522	1215.13049	-485.72974	1088.38269	1238.245	-437.04773	981.1615	1255.06104	-334.99182	876.52209	1215.52161	-382.97357	855.75208	1258.45007	-319.29236	801.14716	1255.46008	-347.36716	955.89014	876.42627	-383.28064	946.37909	1093.2865	-510.69131	976.30029	882.33112	-529.30078	965.79883	1048.32886	-352.2298	646.22424	808.38086	-308.93671	491.30127	840.76501	-333.46692	233.99915	848.6955	-342.06036	63.84322	893.16052	-384.02026	50.76943	936.95746	-199.36339	37.23747	902.00861	-420.78537	606.44037	1151.58411	-396.77856	481.61185	1147.24536	-589.61902	324.02649	1120.36157	-740.81128	228.48618	1060.37683	-773.30194	247.63515	1009.92432	-702.05048	74.98639	1066.87903	-449.35999	1686.53857	936.82349	NaN	NaN	NaN	NaN	NaN	NaN	NaN	NaN	NaN	NaN	NaN	NaN
27	0.26	-341.85037	1638.04932	873.65607	-331.39438	1639.88977	1005.86121	-477.74142	1593.86157	889.95563	-465.47775	1600.11621	1018.49976	-480.52853	1438.99768	947.69958	-526.43658	1110.30664	963.13928	-372.68515	1357.70776	957.7746	-339.06497	1181.91846	962.68781	-565.13361	1274.42419	1028.07959	-413.34637	1383.98633	791.3739	-445.27835	1182.81677	722.61487	-477.40015	1074.53687	713.39044	-487.62225	924.64807	693.27679	-460.58981	799.28949	738.30548	-518.16901	809.4093	696.56207	-501.31607	719.39069	700.53271	-428.00119	1396.46375	1114.16296	-481.86545	1209.87549	1213.93164	-474.99667	1089.87024	1236.50732	-430.42795	980.45392	1253.7478	-332.35757	871.45764	1215.74158	-381.74554	852.56299	1257.83386	-320.41022	795.57709	1256.09204	-333.85291	957.85022	875.68311	-369.79529	949.46448	1092.88696	-497.03668	978.50262	881.78467	-515.60095	968.43207	1047.54797	-342.29456	647.31757	808.72473	-302.54135	491.24585	840.87482	-331.72879	234.16269	848.83148	-341.72513	64.17157	893.33636	-384.11212	50.89523	937.07202	-199.33159	37.18607	902.17505	-399.44858	609.3515	1150.19592	-371.2731	485.72626	1145.24939	-559.38104	323.14569	1119.81897	-709.48773	223.97139	1060.07361	-743.95599	241.63858	1009.90289	-662.22968	74.19254	1066.35974	-433.87582	1688.81555	936.54102	NaN	NaN	NaN	NaN	NaN	NaN	NaN	NaN	NaN	NaN	NaN	NaN
28	0.27	-326.51288	1639.92896	873.57886	-316.09454	1641.73096	1005.77234	-462.56003	1596.37012	889.90393	-450.36191	1602.62549	1018.49219	-465.98468	1441.25806	947.46442	-512.70685	1112.87402	962.46027	-358.57474	1359.79688	957.6524	-325.272	1184.0957	962.33954	-551.25336	1277.13916	1027.32617	-398.81415	1386.53186	791.3595	-426.6434	1184.69873	722.66559	-455.28305	1075.6803	713.3252	-462.34811	925.64258	692.74445	-433.50473	800.86572	738.11987	-490.37735	809.86469	695.39111	-471.4808	720.383	698.84985	-414.14047	1398.65271	1113.89734	-469.62369	1212.03528	1212.63049	-464.19846	1091.53906	1234.62109	-423.96707	980.08832	1252.48022	-330.29117	866.60822	1215.98633	-381.10138	849.97534	1257.50757	-322.26718	790.36975	1256.54248	-320.3475	959.63361	875.01892	-356.03168	952.53998	1092.34875	-483.30212	980.73199	881.24121	-501.72736	971.21564	1046.82275	-332.43741	648.28235	808.95746	-296.39365	491.00336	840.94678	-329.86053	234.19928	848.65607	-341.71875	64.32427	893.47083	-384.21826	50.94326	937.11987	-199.33588	37.15928	902.28925	-378.37897	612.75922	1149.02942	-346.16437	490.1727	1143.21155	-530.3844	322.03464	1118.46594	-677.73993	218.42953	1059.76855	-714.07825	233.82169	1009.65814	-621.05725	72.88041	1066.64661	-418.40131	1691.18872	936.44666	NaN	NaN	NaN	NaN	NaN	NaN	NaN	NaN	NaN	NaN	NaN	NaN
29	0.28	-311.25281	1641.61523	873.60846	-300.78293	1643.35486	1005.83905	-447.46893	1598.87805	889.96765	-434.94763	1605.02454	1018.33856	-451.84982	1443.47559	947.35516	-498.9003	1115.29224	961.8064	-344.48566	1361.84399	957.54028	-311.52893	1186.1637	961.99036	-537.45569	1279.70361	1026.63196	-384.47934	1389.24658	791.35675	-408.47751	1186.75562	722.6593	-433.88275	1077.08325	713.01581	-437.02313	927.00732	692.27228	-406.41681	802.7627	737.95984	-462.21347	810.52399	694.3562	-440.90128	721.78204	697.29974	-400.49405	1400.78113	1113.59302	-457.29205	1214.17065	1211.39014	-453.47128	1093.30627	1232.65649	-417.66559	980.03497	1251.25891	-328.94763	862.03088	1216.21875	-380.84503	847.87708	1257.26086	-324.83417	785.40869	1256.75708	-306.2594	961.46558	874.13965	-342.47552	955.44733	1091.79382	-469.76044	983.02631	880.74792	-487.73569	974.05145	1046.2063	-322.92874	648.9455	809.09534	-290.53867	490.63495	840.97552	-327.77869	234.22739	848.29309	-341.77878	64.42195	893.5498	-384.39249	51.02497	937.08624	-199.38762	37.09627	902.35376	-357.64816	616.54663	1148.11267	-321.36816	494.75058	1141.2207	-500.81415	320.82327	1117.28979	-645.2196	211.81084	1059.52063	-683.30682	224.42326	1009.5105	-578.64642	71.53301	1067.61255	-402.75446	1693.46582	936.5072	NaN	NaN	NaN	NaN	NaN	NaN	NaN	NaN	NaN	NaN	NaN	NaN
30	0.29	-295.995	1643.22937	873.79718	-285.43387	1644.79041	1006.07361	-432.53787	1601.47522	890.19141	-419.89227	1607.41064	1018.5097	-437.85742	1445.49133	947.2923	-485.08066	1117.55933	961.15198	-330.53284	1363.80176	957.43793	-297.72049	1188.20752	961.711	-523.81732	1282.01257	1026.02661	-370.50934	1391.85522	791.41595	-390.71295	1188.93689	722.48291	-413.26227	1078.68018	712.37714	-411.68387	928.64124	691.82965	-378.17017	805.15234	737.86078	-433.39902	811.54211	693.78558	-409.72842	723.60718	695.97046	-387.05179	1402.79126	1113.3656	-444.92474	1216.18909	1210.25586	-442.98819	1095.13306	1230.83838	-411.72714	980.27332	1250.09644	-328.03842	857.84296	1216.35168	-380.75629	846.34204	1257.2251	-328.00601	781.24091	1257.26038	-293.12827	962.89545	873.73596	-329.36343	957.90851	1091.02283	-455.7374	985.12195	880.2262	-473.66599	976.81305	1045.76099	-313.81613	649.33496	809.26569	-284.96191	490.13339	840.81915	-325.56967	234.12413	847.81915	-341.74695	64.51192	893.59229	-384.1803	50.97195	937.4588	-199.40123	37.01853	902.32788	-336.99475	620.34045	1147.17944	-297.19241	499.42267	1138.93066	-471.81058	319.77991	1115.98718	-611.75897	204.28841	1059.47156	-651.35419	213.91661	1009.58063	-535.66235	69.9986	1069.17419	-387.10019	1695.64465	936.88068	NaN	NaN	NaN	NaN	NaN	NaN	NaN	NaN	NaN	NaN	NaN	NaN
